<?xml version="1.0" encoding="utf-8"?>
<!-- Generator: Adobe Illustrator 27.8.1, SVG Export Plug-In . SVG Version: 6.00 Build 0)  -->
<svg version="1.1" id="Ebene_1" xmlns="http://www.w3.org/2000/svg" xmlns:xlink="http://www.w3.org/1999/xlink" x="0px" y="0px"
	 viewBox="0 0 566.9 99.5" style="enable-background:new 0 0 566.9 99.5;" xml:space="preserve">
<style type="text/css">
	.st0{fill:#4197CB;}
	.st1{fill:#005487;}
</style>
<rect y="49.8" class="st0" width="49.8" height="49.8"/>
<rect x="49.8" y="49.8" class="st1" width="49.8" height="49.8"/>
<rect x="49.8" y="0" class="st0" width="49.8" height="49.8"/>
<rect x="99.5" y="0" class="st1" width="49.8" height="49.8"/>
<path class="st1" d="M218.9,34.3l-0.1,4.3c0,0-5.3-0.6-7.8-0.6c-7.6,0-9.7,3.2-9.7,11.9c0,9.7,1.5,13.2,9.7,13.2
	c2.5,0,7.9-0.6,7.9-0.6l0.2,4.3c-3.1,0.5-6.1,0.8-9.2,0.9c-10.6,0-13.7-4.8-13.7-17.9c0-12,3.9-16.6,13.7-16.6
	C212.9,33.5,215.9,33.8,218.9,34.3z"/>
<path class="st1" d="M253.5,50.3c0,11.5-2.9,17.6-14.1,17.6s-14.3-5.6-14.3-17.7c0-11.4,3.8-16.8,14.3-16.8
	C249.4,33.3,253.5,38.9,253.5,50.3z M248.4,50.3c0-8.8-2.6-12.4-9-12.4c-7,0-9.2,3.2-9.2,12.3c0,9.3,1.3,13.3,9.2,13.3
	S248.4,59,248.4,50.3L248.4,50.3z"/>
<path class="st1" d="M262.6,67.2V34h5v2.2c0,0,5.6-2.9,10.3-2.9c9.1,0,11.2,4.5,11.2,16.6v17.2h-4.9V50c0-8.8-1-12.1-7-12.1
	c-4.4,0-9.5,2.5-9.5,2.5v26.8H262.6z"/>
<path class="st1" d="M322,38.9c-3.9-0.6-7.7-0.9-11.6-1.1c-4.1,0-7.2,1.1-7.2,5c0,3.1,1.5,4,8.1,5c8.8,1.4,11.9,3.2,11.9,9.6
	c0,7.8-4.9,10.4-12.9,10.4c-4-0.2-7.9-0.6-11.8-1.2l0.3-4.3c0,0,7.7,1.1,11.1,1.1c5.4,0,8.4-1.2,8.4-5.7c0-3.5-1.7-4.2-8.4-5.3
	c-8.1-1.3-11.7-2.9-11.7-9.4c0-7.3,5.9-9.7,11.9-9.7c4,0.1,8,0.6,12,1.3L322,38.9z"/>
<path class="st1" d="M338.5,38.5V54c0,7.2,0.4,9.2,4.8,9.2c1.9,0,5.9-0.3,5.9-0.3l0.3,4.3c-2.2,0.4-4.5,0.6-6.7,0.7
	c-6.8,0-9.2-2.6-9.2-12.1V38.5h-4.7V34h4.7V23.9h5V34H349v4.5L338.5,38.5z"/>
<path class="st1" d="M356.8,34h5v4.4c3.5-2.4,7.4-4.1,11.5-5v5.2c-4.1,0.9-8,2.4-11.6,4.6v24.1h-5L356.8,34z"/>
<path class="st1" d="M406,34v33.2H401v-2.1c0,0-5.2,2.8-9.8,2.8c-9.3,0-11.2-4.2-11.2-16.5V34h4.9v17.2c0,9.2,0.8,12.1,7,12.1
	c4.4,0,9.1-2.5,9.1-2.5V34H406z"/>
<path class="st1" d="M437.9,34.3l-0.1,4.3c0,0-5.3-0.6-7.8-0.6c-7.6,0-9.7,3.2-9.7,11.9c0,9.7,1.5,13.2,9.7,13.2
	c2.5,0,7.9-0.6,7.9-0.6l0.2,4.3c-3.1,0.5-6.1,0.8-9.2,0.9c-10.6,0-13.7-4.8-13.7-17.9c0-12,3.8-16.6,13.7-16.6
	C431.9,33.5,434.9,33.8,437.9,34.3z"/>
<path class="st1" d="M452.3,38.5V54c0,7.2,0.4,9.2,4.8,9.2c1.8,0,5.9-0.3,5.9-0.3l0.3,4.3c-2.2,0.4-4.5,0.6-6.7,0.7
	c-6.8,0-9.2-2.6-9.2-12.1V38.5h-4.7V34h4.7V23.9h5V34h10.5v4.5L452.3,38.5z"/>
<path class="st1" d="M470.2,20.7h4.9v5.8h-4.9V20.7z M470.2,34h4.9v33.2h-4.9V34z"/>
<path class="st1" d="M487.3,34l8,28.9h2.5l8.1-28.9h5l-9.4,33.2h-9.9L482.2,34H487.3z"/>
<path class="st1" d="M541.2,60.5c0.1,2.1,1.7,2.8,3.8,3l-0.2,4.3c-4,0-6.1-0.7-7.8-2.5c-3.9,1.6-8.1,2.4-12.3,2.5
	c-5.8,0-9-3.6-9-10.1s3.2-9.2,10.1-9.8l10.5-1v-2.7c0-4.2-2.1-6-5.8-6c-4.8,0-12.7,0.9-12.7,0.9l-0.2-4.4c4.3-0.7,8.7-1.2,13.1-1.3
	c7,0,10.5,3.3,10.5,10.8L541.2,60.5z M526.5,51.7c-4,0.4-5.7,2.5-5.7,5.8c0,3.9,1.7,6,4.7,6c3.7-0.2,7.3-0.8,10.8-2V50.9L526.5,51.7
	z"/>
</svg>
